<?xml version="1.0" encoding="UTF-8"?>
<svg height="128px" viewBox="0 0 128 128" width="128px" xmlns="http://www.w3.org/2000/svg" xmlns:xlink="http://www.w3.org/1999/xlink">
    <linearGradient id="a" gradientUnits="userSpaceOnUse" x1="4" x2="128" y1="62" y2="62">
        <stop offset="0" stop-color="#cf983f"/>
        <stop offset="0.5" stop-color="#e9cb8b"/>
        <stop offset="1" stop-color="#c88f2e"/>
    </linearGradient>
    <linearGradient id="b" gradientUnits="userSpaceOnUse">
        <stop offset="0" stop-color="#827d88"/>
        <stop offset="0.3" stop-color="#9c99a0"/>
        <stop offset="1" stop-color="#5c5b61"/>
    </linearGradient>
    <linearGradient id="c" x1="13.999997" x2="26" xlink:href="#b" y1="95.249977" y2="95.249977"/>
    <linearGradient id="d" x1="15.999998" x2="24" xlink:href="#b" y1="90.999974" y2="90.999974"/>
    <linearGradient id="e" gradientUnits="userSpaceOnUse" x1="4" x2="127.809265" y1="72" y2="72">
        <stop offset="0" stop-color="#9d6f27"/>
        <stop offset="0.549232" stop-color="#d89c51"/>
        <stop offset="1" stop-color="#a27329"/>
    </linearGradient>
    <radialGradient id="f" cx="126" cy="63" gradientTransform="matrix(0 3.2 -3.2 0 319.600006 -356.200012)" gradientUnits="userSpaceOnUse" r="10">
        <stop offset="0" stop-color="#877c9f"/>
        <stop offset="0.246445" stop-color="#544e5f"/>
        <stop offset="1" stop-color="#35313d"/>
    </radialGradient>
    <linearGradient id="g" gradientUnits="userSpaceOnUse" x1="62.994965" x2="81" y1="92.482552" y2="97.306976">
        <stop offset="0" stop-color="#6f6f6f"/>
        <stop offset="0.3" stop-color="#b4b4b6"/>
        <stop offset="1" stop-color="#787783"/>
    </linearGradient>
    <radialGradient id="h" cx="70.81749776349" cy="81.55778437822" gradientUnits="userSpaceOnUse" r="5.000001">
        <stop offset="0" stop-color="#c9c8c8"/>
        <stop offset="1" stop-color="#424240"/>
    </radialGradient>
    <clipPath id="i">
        <rect height="128" width="128"/>
    </clipPath>
    <clipPath id="j">
        <rect height="128" width="128"/>
    </clipPath>
    <filter id="k" height="100%" width="100%" x="0%" y="0%">
        <feColorMatrix in="SourceGraphic" type="matrix" values="0 0 0 0 1 0 0 0 0 1 0 0 0 0 1 0 0 0 1 0"/>
    </filter>
    <mask id="l">
        <g clip-path="url(#j)" filter="url(#k)">
            <g clip-path="url(#i)">
                <path d="m 92 98 c 0 11.046875 -8.953125 20 -20 20 s -20 -8.953125 -20 -20 s 8.953125 -20 20 -20 s 20 8.953125 20 20 z m 0 0" fill="#63452c"/>
                <path d="m 20 86 h 54 v 24 h -54 z m 0 0" fill="#63452c"/>
                <path d="m 92 94 c 0 11.046875 -8.953125 20 -20 20 s -20 -8.953125 -20 -20 s 8.953125 -20 20 -20 s 20 8.953125 20 20 z m 0 0" fill="#865e3c"/>
                <path d="m 72 34 c -14.140625 0 -26.371094 8.15625 -32.257812 20.015625 c -7.34375 0.121094 -13.453126 5.183594 -15.214844 11.984375 h -16.527344 c -2.214844 0 -4 1.785156 -4 4 v 10 c 0 2.214844 1.785156 4 4 4 h 24.34375 c 2.324219 1.277344 4.941406 1.992188 7.65625 2 c 8.835938 0 16 -7.164062 16 -16 s 7.164062 -16 16 -16 s 16 7.164062 16 16 c 0 11.046875 8.953125 20 20 20 c 7.144531 0 20 0 20 -8 v -9 c 0 -1.65625 -1.34375 -3 -3 -3 h -17 c 0 -19.882812 -16.117188 -36 -36 -36 z m 0 0" fill="url(#a)"/>
                <path d="m 36 98 c 0 8.835938 -7.164062 16 -16 16 s -16 -7.164062 -16 -16 s 7.164062 -16 16 -16 s 16 7.164062 16 16 z m 0 0" fill="#63452c"/>
                <path d="m 20 82 h 54 v 24 h -54 z m 0 0" fill="#865e3c"/>
                <path d="m 36 94 c 0 8.835938 -7.164062 16 -16 16 s -16 -7.164062 -16 -16 s 7.164062 -16 16 -16 s 16 7.164062 16 16 z m 0 0" fill="#865e3c"/>
                <path d="m 14 89.25 v 4.5 c 0 3.3125 2.6875 6 6 6 s 6 -2.6875 6 -6 v -4.5 z m 0 0" fill="url(#c)"/>
                <path d="m 26 91 c 0 3.3125 -2.6875 6 -6 6 s -6 -2.6875 -6 -6 s 2.6875 -6 6 -6 s 6 2.6875 6 6 z m 0 0" fill="#a4a2ab"/>
                <path d="m 16 87 v 3 c 0 2.210938 1.789062 4 4 4 s 4 -1.789062 4 -4 v -3 z m 0 0" fill="url(#d)"/>
                <path d="m 72 44 c -14.140625 0 -26.371094 8.15625 -32.257812 20.015625 c -7.183594 0.128906 -13.402344 5.027344 -15.207032 11.984375 h -16.535156 c -2.214844 0 -4 1.785156 -4 4 v 6 c 0 2.214844 1.785156 4 4 4 h 19.550781 c 3.027344 3.78125 7.605469 5.988281 12.449219 6 c 8.835938 0 16 -7.164062 16 -16 v -8 h 0.035156 c 0.261719 -3.378906 3.074219 -5.992188 6.464844 -6 c 3.394531 0 6.21875 2.613281 6.480469 6 h 0.019531 v 8 h 6 v -8 h 0.035156 c 0.261719 -3.378906 3.074219 -5.992188 6.464844 -6 c 3.394531 0 6.21875 2.613281 6.476562 6 h 0.023438 v 8 c 0 11.046875 8.953125 20 20 20 c 10.039062 0 18.347656 -7.394531 19.78125 -17.03125 c 0.242188 -1.628906 -1.113281 -2.96875 -2.761719 -2.96875 h -17.019531 c 0 -19.882812 -16.117188 -36 -36 -36 z m 0 0" fill="url(#e)"/>
                <path d="m 118 40 c -5.523438 0 -10 4.476562 -10 10 c 0.007812 0.671875 0.085938 1.34375 0.226562 2 h -0.027343 l 0.0625 0.171875 c 2.757812 7.242187 4.027343 15.261719 5.738281 22.828125 c 0 2.210938 1.789062 4 4 4 s 4 -1.789062 4 -4 c 1.398438 -7.828125 3.628906 -15.617188 5.738281 -22.828125 l 0.0625 -0.171875 h -0.027343 c 0.144531 -0.65625 0.21875 -1.328125 0.226562 -2 c 0 -5.523438 -4.476562 -10 -10 -10 z m 0 0" fill="url(#f)"/>
                <path d="m 40 74 c -3.867188 0 -7 3.132812 -7 7 v 3.109375 h 0.742188 c 1.179687 2.378906 3.601562 3.886719 6.257812 3.890625 c 2.65625 -0.003906 5.078125 -1.511719 6.257812 -3.890625 h 0.742188 v -3.109375 c 0 -3.867188 -3.132812 -7 -7 -7 z m 0 0" fill="#865e3c"/>
                <path d="m 68.945312 87.054688 l -6.238281 6.238281 c -0.390625 0.390625 -0.71875 1.15625 -0.667969 1.703125 c 0.34375 3.5625 2.742188 6.855468 6.070313 8.21875 c 3.570313 1.554687 8.003906 0.75 10.789063 -1.976563 c 1.722656 -1.625 2.820312 -3.886719 3.054687 -6.242187 c 0.054687 -0.546875 -0.269531 -1.3125 -0.660156 -1.703125 l -6.238281 -6.238281 c -1.6875 -1.6875 -4.421876 -1.6875 -6.109376 0 z m 0 0" fill="url(#g)"/>
                <path d="m 70.152344 79.230469 l -1.152344 0.769531 c 0 1.65625 1.34375 3 3 3 s 3 -1.34375 3 -3 l -1.152344 -0.769531 c -1.121094 -0.746094 -2.574218 -0.746094 -3.695312 0 z m 0 0" fill="url(#h)"/>
                <path d="m 72 44 c -14.140625 0 -26.371094 8.15625 -32.257812 20.015625 c -7.183594 0.128906 -13.402344 5.027344 -15.207032 11.984375 h -16.535156 c -2.214844 0 -4 1.785156 -4 4 v 2 c 0 -2.214844 1.785156 -4 4 -4 h 16.535156 c 1.804688 -6.957031 8.023438 -11.855469 15.207032 -11.984375 c 5.886718 -11.859375 18.117187 -20.015625 32.257812 -20.015625 c 19.882812 0 36 16.117188 36 36 h 17.019531 c 1.191407 0 2.222657 0.710938 2.617188 1.714844 c 0.046875 -0.25 0.105469 -0.496094 0.144531 -0.746094 c 0.242188 -1.628906 -1.113281 -2.96875 -2.761719 -2.96875 h -17.019531 c 0 -19.882812 -16.117188 -36 -36 -36 z m 0 0" fill="#e1ba7f"/>
                <path d="m 39.949219 76 c -3.835938 0 -6.949219 3.132812 -6.949219 7 v 25 h 13.898438 v -25 c 0 -3.867188 -3.109376 -7 -6.949219 -7 z m 0 0" fill="#63452c"/>
                <path d="m 43 83 c 0 1.65625 -1.34375 3 -3 3 s -3 -1.34375 -3 -3 s 1.34375 -3 3 -3 s 3 1.34375 3 3 z m 0 0" fill-opacity="0.203922"/>
                <path d="m 72 34 c -7.984375 0 -15.355469 2.601562 -21.324219 7 h 29.324219 c 2.722656 0 5.003906 -1.800781 5.738281 -4.28125 c -4.234375 -1.75 -8.871093 -2.71875 -13.738281 -2.71875 z m 0 0" fill-opacity="0.137255"/>
                <path d="m 10 4 c -3.324219 0 -6 2.675781 -6 6 v 24 c 0 3.324219 2.675781 6 6 6 h 10 l 12 12 v -12 h 48 c 3.324219 0 6 -2.675781 6 -6 v -24 c 0 -3.324219 -2.675781 -6 -6 -6 z m 0 0" fill="#ffffff"/>
                <path d="m 12 18 h 20 v 6 h -20 z m 0 0" fill="#1c71d8"/>
                <path d="m 12 16 h 20 v 6 h -20 z m 0 0" fill="#3584e4"/>
                <path d="m 72 26 c -1.425781 0.003906 -2.742188 0.765625 -3.453125 2 h -0.546875 v 2 c 0 2.210938 1.789062 4 4 4 s 4 -1.789062 4 -4 v -2 h -0.535156 c -0.714844 -1.238281 -2.035156 -2 -3.464844 -2 z m 0 0" fill="#1c71d8"/>
                <path d="m 76 28 c 0 2.207031 -1.789062 4 -4 4 s -4 -1.792969 -4 -4 c 0 -2.210938 1.789062 -4 4 -4 s 4 1.789062 4 4 z m 0 0" fill="#3584e4"/>
                <path d="m 72 85.792969 c -0.671875 0 -1.339844 0.15625 -1.953125 0.464843 c 0.542969 0.472657 1.234375 0.738282 1.953125 0.742188 c 0.71875 -0.003906 1.410156 -0.269531 1.953125 -0.742188 c -0.613281 -0.308593 -1.28125 -0.464843 -1.953125 -0.464843 z m 0 0" fill-opacity="0.196078"/>
                <path d="m 40 18 h 20 v 6 h -20 z m 0 0" fill="#1c71d8"/>
                <path d="m 40 16 h 20 v 6 h -20 z m 0 0" fill="#3584e4"/>
            </g>
        </g>
    </mask>
    <mask id="m">
        <g filter="url(#k)">
            <rect fill-opacity="0.8" height="128" width="128"/>
        </g>
    </mask>
    <linearGradient id="n" gradientTransform="matrix(0 0.37 -0.98462 0 295.38501 -30.360001)" gradientUnits="userSpaceOnUse" x1="300" x2="428" y1="235" y2="235">
        <stop offset="0" stop-color="#f9f06b"/>
        <stop offset="1" stop-color="#f5c211"/>
    </linearGradient>
    <clipPath id="o">
        <rect height="128" width="128"/>
    </clipPath>
    <clipPath id="p">
        <rect height="128" width="128"/>
    </clipPath>
    <path d="m 92 98 c 0 11.046875 -8.953125 20 -20 20 s -20 -8.953125 -20 -20 s 8.953125 -20 20 -20 s 20 8.953125 20 20 z m 0 0" fill="#63452c"/>
    <path d="m 20 86 h 54 v 24 h -54 z m 0 0" fill="#63452c"/>
    <path d="m 92 94 c 0 11.046875 -8.953125 20 -20 20 s -20 -8.953125 -20 -20 s 8.953125 -20 20 -20 s 20 8.953125 20 20 z m 0 0" fill="#865e3c"/>
    <path d="m 72 34 c -14.140625 0 -26.371094 8.15625 -32.257812 20.015625 c -7.34375 0.121094 -13.453126 5.183594 -15.214844 11.984375 h -16.527344 c -2.214844 0 -4 1.785156 -4 4 v 10 c 0 2.214844 1.785156 4 4 4 h 24.34375 c 2.324219 1.277344 4.941406 1.992188 7.65625 2 c 8.835938 0 16 -7.164062 16 -16 s 7.164062 -16 16 -16 s 16 7.164062 16 16 c 0 11.046875 8.953125 20 20 20 c 7.144531 0 20 0 20 -8 v -9 c 0 -1.65625 -1.34375 -3 -3 -3 h -17 c 0 -19.882812 -16.117188 -36 -36 -36 z m 0 0" fill="url(#a)"/>
    <path d="m 36 98 c 0 8.835938 -7.164062 16 -16 16 s -16 -7.164062 -16 -16 s 7.164062 -16 16 -16 s 16 7.164062 16 16 z m 0 0" fill="#63452c"/>
    <path d="m 20 82 h 54 v 24 h -54 z m 0 0" fill="#865e3c"/>
    <path d="m 36 94 c 0 8.835938 -7.164062 16 -16 16 s -16 -7.164062 -16 -16 s 7.164062 -16 16 -16 s 16 7.164062 16 16 z m 0 0" fill="#865e3c"/>
    <path d="m 14 89.25 v 4.5 c 0 3.3125 2.6875 6 6 6 s 6 -2.6875 6 -6 v -4.5 z m 0 0" fill="url(#c)"/>
    <path d="m 26 91 c 0 3.3125 -2.6875 6 -6 6 s -6 -2.6875 -6 -6 s 2.6875 -6 6 -6 s 6 2.6875 6 6 z m 0 0" fill="#a4a2ab"/>
    <path d="m 16 87 v 3 c 0 2.210938 1.789062 4 4 4 s 4 -1.789062 4 -4 v -3 z m 0 0" fill="url(#d)"/>
    <path d="m 72 44 c -14.140625 0 -26.371094 8.15625 -32.257812 20.015625 c -7.183594 0.128906 -13.402344 5.027344 -15.207032 11.984375 h -16.535156 c -2.214844 0 -4 1.785156 -4 4 v 6 c 0 2.214844 1.785156 4 4 4 h 19.550781 c 3.027344 3.78125 7.605469 5.988281 12.449219 6 c 8.835938 0 16 -7.164062 16 -16 v -8 h 0.035156 c 0.261719 -3.378906 3.074219 -5.992188 6.464844 -6 c 3.394531 0 6.21875 2.613281 6.480469 6 h 0.019531 v 8 h 6 v -8 h 0.035156 c 0.261719 -3.378906 3.074219 -5.992188 6.464844 -6 c 3.394531 0 6.21875 2.613281 6.476562 6 h 0.023438 v 8 c 0 11.046875 8.953125 20 20 20 c 10.039062 0 18.347656 -7.394531 19.78125 -17.03125 c 0.242188 -1.628906 -1.113281 -2.96875 -2.761719 -2.96875 h -17.019531 c 0 -19.882812 -16.117188 -36 -36 -36 z m 0 0" fill="url(#e)"/>
    <path d="m 118 40 c -5.523438 0 -10 4.476562 -10 10 c 0.007812 0.671875 0.085938 1.34375 0.226562 2 h -0.027343 l 0.0625 0.171875 c 2.757812 7.242187 4.027343 15.261719 5.738281 22.828125 c 0 2.210938 1.789062 4 4 4 s 4 -1.789062 4 -4 c 1.398438 -7.828125 3.628906 -15.617188 5.738281 -22.828125 l 0.0625 -0.171875 h -0.027343 c 0.144531 -0.65625 0.21875 -1.328125 0.226562 -2 c 0 -5.523438 -4.476562 -10 -10 -10 z m 0 0" fill="url(#f)"/>
    <path d="m 40 74 c -3.867188 0 -7 3.132812 -7 7 v 3.109375 h 0.742188 c 1.179687 2.378906 3.601562 3.886719 6.257812 3.890625 c 2.65625 -0.003906 5.078125 -1.511719 6.257812 -3.890625 h 0.742188 v -3.109375 c 0 -3.867188 -3.132812 -7 -7 -7 z m 0 0" fill="#865e3c"/>
    <path d="m 68.945312 87.054688 l -6.238281 6.238281 c -0.390625 0.390625 -0.71875 1.15625 -0.667969 1.703125 c 0.34375 3.5625 2.742188 6.855468 6.070313 8.21875 c 3.570313 1.554687 8.003906 0.75 10.789063 -1.976563 c 1.722656 -1.625 2.820312 -3.886719 3.054687 -6.242187 c 0.054687 -0.546875 -0.269531 -1.3125 -0.660156 -1.703125 l -6.238281 -6.238281 c -1.6875 -1.6875 -4.421876 -1.6875 -6.109376 0 z m 0 0" fill="url(#g)"/>
    <path d="m 70.152344 79.230469 l -1.152344 0.769531 c 0 1.65625 1.34375 3 3 3 s 3 -1.34375 3 -3 l -1.152344 -0.769531 c -1.121094 -0.746094 -2.574218 -0.746094 -3.695312 0 z m 0 0" fill="url(#h)"/>
    <path d="m 72 44 c -14.140625 0 -26.371094 8.15625 -32.257812 20.015625 c -7.183594 0.128906 -13.402344 5.027344 -15.207032 11.984375 h -16.535156 c -2.214844 0 -4 1.785156 -4 4 v 2 c 0 -2.214844 1.785156 -4 4 -4 h 16.535156 c 1.804688 -6.957031 8.023438 -11.855469 15.207032 -11.984375 c 5.886718 -11.859375 18.117187 -20.015625 32.257812 -20.015625 c 19.882812 0 36 16.117188 36 36 h 17.019531 c 1.191407 0 2.222657 0.710938 2.617188 1.714844 c 0.046875 -0.25 0.105469 -0.496094 0.144531 -0.746094 c 0.242188 -1.628906 -1.113281 -2.96875 -2.761719 -2.96875 h -17.019531 c 0 -19.882812 -16.117188 -36 -36 -36 z m 0 0" fill="#e1ba7f"/>
    <path d="m 39.949219 76 c -3.835938 0 -6.949219 3.132812 -6.949219 7 v 25 h 13.898438 v -25 c 0 -3.867188 -3.109376 -7 -6.949219 -7 z m 0 0" fill="#63452c"/>
    <path d="m 43 83 c 0 1.65625 -1.34375 3 -3 3 s -3 -1.34375 -3 -3 s 1.34375 -3 3 -3 s 3 1.34375 3 3 z m 0 0" fill-opacity="0.203922"/>
    <path d="m 72 34 c -7.984375 0 -15.355469 2.601562 -21.324219 7 h 29.324219 c 2.722656 0 5.003906 -1.800781 5.738281 -4.28125 c -4.234375 -1.75 -8.871093 -2.71875 -13.738281 -2.71875 z m 0 0" fill-opacity="0.137255"/>
    <path d="m 10 4 c -3.324219 0 -6 2.675781 -6 6 v 24 c 0 3.324219 2.675781 6 6 6 h 10 l 12 12 v -12 h 48 c 3.324219 0 6 -2.675781 6 -6 v -24 c 0 -3.324219 -2.675781 -6 -6 -6 z m 0 0" fill="#ffffff"/>
    <path d="m 12 18 h 20 v 6 h -20 z m 0 0" fill="#1c71d8"/>
    <path d="m 12 16 h 20 v 6 h -20 z m 0 0" fill="#3584e4"/>
    <path d="m 72 26 c -1.425781 0.003906 -2.742188 0.765625 -3.453125 2 h -0.546875 v 2 c 0 2.210938 1.789062 4 4 4 s 4 -1.789062 4 -4 v -2 h -0.535156 c -0.714844 -1.238281 -2.035156 -2 -3.464844 -2 z m 0 0" fill="#1c71d8"/>
    <path d="m 76 28 c 0 2.207031 -1.789062 4 -4 4 s -4 -1.792969 -4 -4 c 0 -2.210938 1.789062 -4 4 -4 s 4 1.789062 4 4 z m 0 0" fill="#3584e4"/>
    <path d="m 72 85.792969 c -0.671875 0 -1.339844 0.15625 -1.953125 0.464843 c 0.542969 0.472657 1.234375 0.738282 1.953125 0.742188 c 0.71875 -0.003906 1.410156 -0.269531 1.953125 -0.742188 c -0.613281 -0.308593 -1.28125 -0.464843 -1.953125 -0.464843 z m 0 0" fill-opacity="0.196078"/>
    <path d="m 40 18 h 20 v 6 h -20 z m 0 0" fill="#1c71d8"/>
    <path d="m 40 16 h 20 v 6 h -20 z m 0 0" fill="#3584e4"/>
    <g clip-path="url(#p)" mask="url(#l)">
        <g clip-path="url(#o)" mask="url(#m)">
            <path d="m 128 80.640625 v 47.359375 h -128 v -47.359375 z m 0 0" fill="url(#n)"/>
            <path d="m 13.308594 80.640625 l 47.355468 47.359375 h 21.214844 l -47.359375 -47.359375 z m 42.421875 0 l 47.363281 47.359375 h 21.214844 l -47.363282 -47.359375 z m 42.429687 0 l 29.839844 29.839844 v -21.210938 l -8.628906 -8.628906 z m -98.160156 7.90625 v 21.214844 l 18.238281 18.238281 h 21.214844 z m 0 0"/>
        </g>
    </g>
</svg>
